# xmcd
#
# Track frame offsets:
#  150
#  22424
#  43716
#  49551
#  71100
#  81397
#  104519
#  136134
#  150035
#  173706
#
# Disc length: 2634 seconds
#
# Revision: 0
# Processed by: cddbd v1.5.2PL0 Copyright (c) Steve Scherf et al.
# Submitted via: Collectorz.com_Music_Collector 6.11
#
DISCID=800a480a
DTITLE=Casket Salesmen - Sleeping Giants
DYEAR=2006
DGENRE=Rock
TTITLE0=I'll Buy That For A Dollar
TTITLE1=Dr. Jesus
TTITLE2=Shanghai Sally
TTITLE3=The Anaheimlich Maneuver
TTITLE4=Forked Tongues
TTITLE5=Peace Monger
TTITLE6=Art Sanwich
TTITLE7=Feeling Ten Feet Tall Part One
TTITLE8=Feeling Ten Feet Tall Part Two
TTITLE9=Goodnight, Jugdish
EXTD=
EXTT0=
EXTT1=
EXTT2=
EXTT3=
EXTT4=
EXTT5=
EXTT6=
EXTT7=
EXTT8=
EXTT9=
PLAYORDER=
